<svg width="0" height="0" class="hidden">

  <symbol width="40" height="40" xmlns="http://www.w3.org/2000/svg" viewBox="0 0 234 239" id="Sound-on">
    <mask id="a" maskUnits="userSpaceOnUse" x="43" y="60" width="61" height="119">
      <path d="M43 116.384c0 35.897 40.667 56.505 61 62.322V60.294c-20.333 3.74-61 20.192-61 56.09z" fill="#000"></path>
    </mask>
    <g mask="url(#a)">
      <path d="M43 115.187c0 35.898 40.667 56.506 61 62.322V59.098c-20.333 3.739-61 20.192-61 56.089z" fill="#000"></path>
      <path d="M45.392 115.44c0 32.996 37.477 51.939 56.216 57.285V63.882c-18.739 3.438-56.216 18.56-56.216 51.558z" fill="#0F0F0F"></path>
      <path d="M64.478 130.763c-1.064-.012-3.389-.486-4.175-2.287-3.797-6.578-2.975-13.944-1.068-19.43 1.511-4.347 4.462-8.292 6.544-11.074l.06-.08c3.043-3.867 3.858-5.337 5.25-4.614 1.186.566-3.97 7.01-4.614 8.299-3.727 7.454-6.532 15.466-1.289 23.199 1.745 2.573.645 5.8-.708 5.987z" fill="#1F1F1F"></path>
    </g>
    <path d="M88 239V0c42.086 0 146 28.581 146 116.625S130.086 232.703 88 239z" fill="#404040"></path>
    <rect x="38.269" y="186.974" width="2.46" height="30.399" rx="1.23" transform="rotate(-135 38.269 186.974)" stroke="#000" stroke-width="2.46"></rect>
    <rect x="1.25" y="117.75" width="2.5" height="32.5" rx="1.25" transform="rotate(-90 1.25 117.75)" stroke="#000" stroke-width="2.5"></rect>
    <rect x="37.505" y="49.244" width="2.46" height="29.019" rx="1.23" transform="rotate(-45 37.505 49.244)" stroke="#000" stroke-width="2.46"></rect>
  </symbol>

   <symbol width="40" height="40" xmlns="http://www.w3.org/2000/svg" viewBox="0 0 246 245" id="Sound-off">
    <mask id="a" maskUnits="userSpaceOnUse" x="49" y="63" width="61" height="119">
      <path d="M49 119.384c0 35.897 40.667 56.505 61 62.322V63.294c-20.333 3.74-61 20.192-61 56.09z" fill="#000"></path>
    </mask>
    <g mask="url(#a)">
      <path d="M49 118.187c0 35.898 40.667 56.506 61 62.322V62.098c-20.333 3.739-61 20.192-61 56.089z" fill="#000"></path>
      <path d="M51.392 118.44c0 32.996 37.477 51.939 56.216 57.285V66.882c-18.739 3.438-56.216 18.56-56.216 51.558z" fill="#0F0F0F"></path>
      <path d="M70.478 133.763c-1.064-.012-3.389-.486-4.175-2.287-3.797-6.578-2.975-13.944-1.068-19.43 1.511-4.347 4.462-8.292 6.544-11.074l.06-.08c3.043-3.867 3.858-5.337 5.25-4.614 1.186.566-3.97 7.01-4.614 8.299-3.727 7.454-6.532 15.466-1.289 23.199 1.745 2.573.645 5.8-.708 5.987z" fill="#1F1F1F"></path>
    </g>
    <mask id="b" maskUnits="userSpaceOnUse" x="94" y="3" width="146" height="239">
      <path d="M94 242V3c42.086 0 146 28.581 146 116.625S136.086 235.703 94 242z" fill="#604E0E"></path>
    </mask>
    <g mask="url(#b)">
      <path d="M94 242V3c42.086 0 146 28.581 146 116.625S136.086 235.703 94 242z" fill="#404040"></path>
    </g>
    <rect x="44.269" y="189.974" width="2.46" height="30.399" rx="1.23" transform="rotate(-135 44.269 189.974)" stroke="#000" stroke-width="2.46"></rect>
    <rect x="7.25" y="120.75" width="2.5" height="32.5" rx="1.25" transform="rotate(-90 7.25 120.75)" stroke="#000" stroke-width="2.5"></rect>
    <rect x="43.505" y="52.244" width="2.46" height="29.019" rx="1.23" transform="rotate(-45 43.505 52.244)" stroke="#000" stroke-width="2.46"></rect>
    <rect x="239.619" y="225.34" width="18.939" height="310.194" rx="9.469" transform="rotate(135 239.619 225.34)" fill="#000"></rect>
    <rect x="226.227" y="6" width="18.939" height="310.194" rx="9.469" transform="rotate(45 226.227 6)" fill="#000"></rect>
    <rect x="231.158" y="225.379" width="6.919" height="298.23" rx="3.46" transform="rotate(135 231.158 225.379)" fill="#CF0000"></rect>
    <rect x="226.073" y="14.653" width="6.919" height="295.721" rx="3.46" transform="rotate(45 226.073 14.653)" fill="#CF0000"></rect>
  </symbol>

  <symbol width="61" height="26" viewBox="0 0 61 26" xmlns="http://www.w3.org/2000/svg" id="arrow">
    <path d="M0.5 13H61M0.5 13C4.5 13 13.9 11.8 21.5 1M0.5 13C4.5 13 13.9 14.2 21.5 25" stroke="black" stroke-width="3"/>
  </symbol>
  
</svg>
