<svg width="0" height="0" class="hidden">
  <symbol fill="none" xmlns="http://www.w3.org/2000/svg" viewBox="0 0 33 52" id="sound-on">
    <path d="M2.5 44c0-6 5.333-7.833 8-8H13V12c0-4.5 6.5-8 12.5-8 3 0 3 3 3 5s-1.8 2.5-5 2.5-6-.5-6 .5v31c0 7.2-5.333 8.333-8 8-2.333.167-7-1-7-7zM23 30.452c0-2.168 1.846-2.83 2.77-2.89h.865V18.89c0-1.625 2.25-2.89 4.326-2.89C32 16 32 17.084 32 17.806c0 .723-.623.904-1.73.904-1.108 0-2.078-.18-2.078.18v11.201c0 2.601-1.846 3.01-2.769 2.89-.808.06-2.423-.36-2.423-2.529zm-22-15c0-2.168 1.846-2.83 2.77-2.89h.865V3.89C4.635 2.265 6.885 1 8.962 1 10 1 10 2.084 10 2.807c0 .722-.623.903-1.73.903-1.108 0-2.078-.18-2.078.18v11.201c0 2.601-1.846 3.01-2.769 2.89-.808.06-2.423-.36-2.423-2.529z" fill="#000" stroke="#000"></path>
  </symbol>
  <symbol fill="none" xmlns="http://www.w3.org/2000/svg" viewBox="0 0 37 52" id="sound-off">
    <path d="M7.103 44c0-6 4.863-7.833 7.294-8h2.28V12c0-4.5 5.926-8 11.396-8 2.736 0 2.736 3 2.736 5s-1.641 2.5-4.559 2.5-5.47-.5-5.47.5v31c0 7.2-4.863 8.333-7.295 8-2.127.167-6.382-1-6.382-7zm18.691-13.548c0-2.168 1.683-2.83 2.525-2.89h.789V18.89c0-1.625 2.052-2.89 3.945-2.89C34 16 34 17.084 34 17.806c0 .723-.568.904-1.578.904-1.01 0-1.894-.18-1.894.18v11.201c0 2.601-1.683 3.01-2.525 2.89-.736.06-2.209-.36-2.209-2.529zm-20.059-15c0-2.168 1.684-2.83 2.525-2.89h.79V3.89C9.05 2.265 11.1 1 12.993 1c.947 0 .947 1.084.947 1.807 0 .722-.568.903-1.578.903-1.01 0-1.893-.18-1.893.18v11.201c0 2.601-1.684 3.01-2.525 2.89-.737.06-2.21-.36-2.21-2.529z" fill="#D0D0D0" stroke="#D0D0D0"></path>
    <path d="M4.148 9.85L19.06 25.985m0 0l.014.015m-.014-.015l-.015.015m.015-.015l10.347-11.166M19.074 26l10.333 11.18M19.074 26l10.333-11.18M19.074 26l-.015.015M29.407 37.18L34 42.15m-4.593-4.97L19.06 26.016M29.407 37.18l3.818 4.119m-3.818-26.48L34 9.85m-4.593 4.97l3.818-4.12M19.059 26.015L3 42.15m16.06-16.135L19.044 26M4.865 10.7L19.046 26m0 0L3.775 41.3" stroke="#000" stroke-width="6"></path>
    <path d="M4.866 10.7l14.166 15.285m0 0l.013.015m-.013-.015l-.014.015m.014-.015l9.83-10.577M19.045 26l9.817 10.592M19.045 26l9.817-10.592M19.045 26l-.014.014m9.831 10.578l4.363 4.708m-4.363-4.708l-9.83-10.578m9.83 10.578l3.627 3.903m-3.627-25.087l4.363-4.708m-4.363 4.708l3.627-3.903M19.03 26.015L3.775 41.3m15.256-15.286L19.018 26M5.548 11.505L19.017 26m0 0L4.511 40.495" stroke="red" stroke-width="3"></path>
  </symbol>
</svg>