<svg width="226" height="213" viewBox="0 0 226 213" fill="none" xmlns="http://www.w3.org/2000/svg">
<g clip-path="url(#clip0)">
<path d="M37.4603 31.619C79.0512 -9.97182 146.713 -10.0486 188.304 31.5422C229.98 73.2178 229.98 140.941 188.304 182.616C146.713 224.207 79.0512 224.131 37.4603 182.54C-4.13049 140.949 -4.13049 73.2099 37.4603 31.619Z" fill="#F4F4F4"/>
<path d="M47.006 34.8009C86.9243 -5.11739 151.645 -5.11737 191.563 34.8009L193.046 36.2841C232.145 75.3832 232.145 138.776 193.046 177.875L190.08 180.841C150.981 219.94 87.5883 219.94 48.4891 180.841L47.006 179.358C7.08765 139.439 7.08766 74.7192 47.006 34.8009Z" fill="black"/>
<path d="M73.1143 124.423C71.4183 124.423 69.9303 123.927 68.6503 122.935C67.4023 121.911 66.0103 120.087 64.4743 117.463L59.6743 109.303H56.3143V123.943H51.9943V98.0231C51.9943 96.3911 51.7703 95.1911 51.3223 94.4231C50.8743 93.6231 49.9783 93.2231 48.6343 93.2231H47.6743V92.2631H60.1543C63.1943 92.2631 65.9463 92.8711 68.4103 94.0871C70.9063 95.2711 72.1543 97.5431 72.1543 100.903C72.1543 105.159 69.5943 107.879 64.4743 109.063L69.5143 117.463C70.6983 119.447 71.7543 120.839 72.6823 121.639C73.6423 122.407 74.7463 122.855 75.9943 122.983V123.943C75.7063 124.071 75.2903 124.183 74.7463 124.279C74.2343 124.375 73.6903 124.423 73.1143 124.423ZM59.9143 107.623C60.9063 107.623 61.9783 107.383 63.1303 106.903C64.3143 106.423 65.3063 105.671 66.1063 104.647C66.9383 103.623 67.3543 102.375 67.3543 100.903C67.3543 99.3351 66.9383 98.0391 66.1063 97.0151C65.3063 95.9591 64.3143 95.1911 63.1303 94.7111C61.9783 94.1991 60.9063 93.9431 59.9143 93.9431C58.7943 93.9431 57.5943 94.1031 56.3143 94.4231V107.143C57.5943 107.463 58.7943 107.623 59.9143 107.623ZM105.309 124.183C103.773 124.183 102.253 123.767 100.749 122.935C99.2451 122.071 98.0451 120.407 97.1491 117.943L95.9491 114.823H82.5091L78.6691 123.943H76.5091L89.9491 92.2631H91.3891L101.949 117.943C102.749 119.799 103.501 121.079 104.205 121.783C104.909 122.455 105.917 122.855 107.229 122.983V123.943C106.653 124.103 106.013 124.183 105.309 124.183ZM83.2291 112.903H94.9891L89.2291 98.9831L83.2291 112.903ZM122.258 124.903C119.282 124.903 116.658 124.183 114.386 122.743C112.146 121.303 110.418 119.351 109.202 116.887C107.986 114.391 107.378 111.623 107.378 108.583C107.378 105.447 108.034 102.551 109.346 99.8951C110.69 97.2391 112.498 95.1431 114.77 93.6071C117.074 92.0711 119.57 91.3031 122.258 91.3031C124.818 91.3031 127.058 91.6711 128.978 92.4071C130.93 93.1111 132.37 94.0231 133.298 95.1431C133.842 95.8151 134.178 96.7111 134.306 97.8311C134.434 98.9191 134.498 100.423 134.498 102.343H133.538C132.93 99.2391 131.81 96.9511 130.178 95.4791C128.546 93.9751 126.386 93.2231 123.698 93.2231C120.242 93.2231 117.458 94.4391 115.346 96.8711C113.234 99.3031 112.178 103.207 112.178 108.583C112.178 111.111 112.578 113.463 113.378 115.639C114.21 117.815 115.49 119.591 117.218 120.967C118.946 122.311 121.106 122.983 123.698 122.983C126.034 122.983 128.066 122.423 129.794 121.303C131.554 120.183 133.122 118.503 134.498 116.263L135.458 116.983C133.986 119.863 132.162 121.911 129.986 123.127C127.842 124.311 125.266 124.903 122.258 124.903ZM142.276 98.0231C142.276 96.3911 142.052 95.1911 141.604 94.4231C141.156 93.6231 140.26 93.2231 138.916 93.2231H137.956V92.2631H158.404C161.124 92.2631 162.484 93.5431 162.484 96.1031V99.7031H161.524C161.524 96.0231 159.524 94.1831 155.524 94.1831H146.596V106.663H159.556V108.583H146.596V122.023H154.996C157.204 122.023 158.932 121.623 160.18 120.823C161.428 120.023 162.42 118.663 163.156 116.743L164.116 116.983L162.436 121.543C161.86 123.143 160.66 123.943 158.836 123.943H142.276V98.0231ZM179.036 124.759C177.276 124.759 175.548 124.519 173.852 124.039C172.156 123.559 170.764 122.871 169.676 121.975C168.62 121.079 168.092 120.055 168.092 118.903V113.767H168.956C169.5 116.967 170.556 119.287 172.124 120.727C173.692 122.135 175.852 122.839 178.604 122.839C180.332 122.839 181.804 122.407 183.02 121.543C184.268 120.679 184.892 119.479 184.892 117.943C184.892 116.599 184.476 115.431 183.644 114.439C182.812 113.447 181.468 112.407 179.612 111.319L173.708 107.815C171.66 106.599 170.204 105.367 169.34 104.119C168.508 102.871 168.092 101.351 168.092 99.5591C168.092 97.0951 168.94 95.1271 170.636 93.6551C172.364 92.1511 174.62 91.3991 177.404 91.3991C179.036 91.3991 180.652 91.6391 182.252 92.1191C183.852 92.5671 185.164 93.2391 186.188 94.1351C187.244 94.9991 187.772 96.0071 187.772 97.1591V102.295H186.908C186.364 99.0951 185.324 96.8071 183.788 95.4311C182.284 94.0231 180.156 93.3191 177.404 93.3191C175.932 93.3191 174.636 93.7671 173.516 94.6631C172.396 95.5591 171.836 96.7271 171.836 98.1671C171.836 99.4791 172.236 100.567 173.036 101.431C173.868 102.295 175.244 103.303 177.164 104.455L183.068 107.959C185.244 109.271 186.78 110.487 187.676 111.607C188.572 112.727 189.02 114.151 189.02 115.879C189.02 118.567 188.124 120.727 186.332 122.359C184.54 123.959 182.108 124.759 179.036 124.759Z" fill="white"/>
<rect x="66" y="51.9431" width="9" height="32" fill="white"/>
<rect x="98" y="51.9431" width="9" height="32" fill="white"/>
<rect x="130" y="51.9431" width="9" height="32" fill="white"/>
<rect x="162" y="51.9431" width="9" height="32" fill="white"/>
<rect x="66" y="130.943" width="9" height="32" fill="white"/>
<rect x="98" y="130.943" width="9" height="32" fill="white"/>
<rect x="130" y="130.943" width="9" height="32" fill="white"/>
<rect x="162" y="130.943" width="9" height="32" fill="white"/>
</g>
<defs>
<clipPath id="clip0">
<rect width="213" height="226" fill="white" transform="translate(0 213) rotate(-90)"/>
</clipPath>
</defs>
</svg>
